<?xml version="1.0" encoding="UTF-8" standalone="no"?>
<svg
   xmlns:dc="http://purl.org/dc/elements/1.1/"
   xmlns:cc="http://creativecommons.org/ns#"
   xmlns:rdf="http://www.w3.org/1999/02/22-rdf-syntax-ns#"
   xmlns:svg="http://www.w3.org/2000/svg"
   xmlns="http://www.w3.org/2000/svg"
   xmlns:sodipodi="http://sodipodi.sourceforge.net/DTD/sodipodi-0.dtd"
   xmlns:inkscape="http://www.inkscape.org/namespaces/inkscape"
   sodipodi:docname="bar.svg"
   inkscape:version="1.0 (4035a4fb49, 2020-05-01)"
   id="svg8"
   version="1.1"
   viewBox="0 0 500 500"
   height="500mm"
   width="500mm">
  <defs
     id="defs2" />
  <sodipodi:namedview
     inkscape:window-maximized="1"
     inkscape:window-y="-8"
     inkscape:window-x="-8"
     inkscape:window-height="745"
     inkscape:window-width="1366"
     showgrid="false"
     inkscape:document-rotation="0"
     inkscape:current-layer="layer1"
     inkscape:document-units="mm"
     inkscape:cy="962.51175"
     inkscape:cx="666.10236"
     inkscape:zoom="0.20766842"
     inkscape:pageshadow="2"
     inkscape:pageopacity="0.0"
     borderopacity="1.0"
     bordercolor="#666666"
     pagecolor="#ffffff"
     id="base" />
  <metadata
     id="metadata5">
    <rdf:RDF>
      <cc:Work
         rdf:about="">
        <dc:format>image/svg+xml</dc:format>
        <dc:type
           rdf:resource="http://purl.org/dc/dcmitype/StillImage" />
        <dc:title></dc:title>
      </cc:Work>
    </rdf:RDF>
  </metadata>
  <g
     id="layer1"
     inkscape:groupmode="layer"
     inkscape:label="Layer 1">
    <path
       d="M 58.093174,134.75363 A 52.161442,52.161442 0 0 1 35.930814,64.395627 52.161442,52.161442 0 0 1 106.28794,42.230504 52.161442,52.161442 0 0 1 128.45583,112.58676 52.161442,52.161442 0 0 1 58.100442,134.75741"
       sodipodi:arc-type="arc"
       sodipodi:open="true"
       sodipodi:end="2.0509015"
       sodipodi:start="2.0510586"
       sodipodi:ry="52.161442"
       sodipodi:rx="52.161442"
       sodipodi:cy="88.493011"
       sodipodi:cx="82.192375"
       sodipodi:type="arc"
       id="path12"
       style="opacity:0.996;fill:#ffffff;stroke-width:4.3863;stroke-linejoin:round;paint-order:markers stroke fill" />
    <path
       style="opacity:0.996;fill:#ffffff;stroke-width:4.3863;stroke-linejoin:round;paint-order:markers stroke fill"
       id="path30"
       sodipodi:type="arc"
       sodipodi:cx="82.192375"
       sodipodi:cy="250.85452"
       sodipodi:rx="52.161442"
       sodipodi:ry="52.161442"
       sodipodi:start="2.0510586"
       sodipodi:end="2.0509015"
       sodipodi:open="true"
       sodipodi:arc-type="arc"
       d="m 58.093174,297.11514 a 52.161442,52.161442 0 0 1 -22.16236,-70.358 52.161442,52.161442 0 0 1 70.357126,-22.16513 52.161442,52.161442 0 0 1 22.16789,70.35626 52.161442,52.161442 0 0 1 -70.355388,22.17065" />
    <path
       d="M 397.52653,134.75363 A 52.161442,52.161442 0 0 1 375.36417,64.395627 52.161442,52.161442 0 0 1 445.7213,42.230504 52.161442,52.161442 0 0 1 467.88919,112.58676 52.161442,52.161442 0 0 1 397.5338,134.75741"
       sodipodi:arc-type="arc"
       sodipodi:open="true"
       sodipodi:end="2.0509015"
       sodipodi:start="2.0510586"
       sodipodi:ry="52.161442"
       sodipodi:rx="52.161442"
       sodipodi:cy="88.493011"
       sodipodi:cx="421.62573"
       sodipodi:type="arc"
       id="path32"
       style="opacity:0.996;fill:#ffffff;stroke-width:4.3863;stroke-linejoin:round;paint-order:markers stroke fill" />
    <path
       style="opacity:0.996;fill:#ffffff;stroke-width:4.3863;stroke-linejoin:round;paint-order:markers stroke fill"
       id="path34"
       sodipodi:type="arc"
       sodipodi:cx="251.90897"
       sodipodi:cy="88.493011"
       sodipodi:rx="52.161442"
       sodipodi:ry="52.161442"
       sodipodi:start="2.0510586"
       sodipodi:end="2.0509015"
       sodipodi:open="true"
       sodipodi:arc-type="arc"
       d="M 227.80976,134.75363 A 52.161442,52.161442 0 0 1 205.6474,64.395627 52.161442,52.161442 0 0 1 276.00453,42.230504 52.161442,52.161442 0 0 1 298.17242,112.58676 52.161442,52.161442 0 0 1 227.81703,134.75741" />
    <path
       style="opacity:0.996;fill:#ffffff;stroke-width:4.3863;stroke-linejoin:round;paint-order:markers stroke fill"
       id="path36"
       sodipodi:type="arc"
       sodipodi:cx="421.62573"
       sodipodi:cy="250.85452"
       sodipodi:rx="52.161442"
       sodipodi:ry="52.161442"
       sodipodi:start="2.0510586"
       sodipodi:end="2.0509015"
       sodipodi:open="true"
       sodipodi:arc-type="arc"
       d="m 397.52653,297.11514 a 52.161442,52.161442 0 0 1 -22.16236,-70.358 52.161442,52.161442 0 0 1 70.35713,-22.16513 52.161442,52.161442 0 0 1 22.16789,70.35626 52.161442,52.161442 0 0 1 -70.35539,22.17065" />
    <path
       d="m 227.80976,297.11514 a 52.161442,52.161442 0 0 1 -22.16236,-70.358 52.161442,52.161442 0 0 1 70.35713,-22.16513 52.161442,52.161442 0 0 1 22.16789,70.35626 52.161442,52.161442 0 0 1 -70.35539,22.17065"
       sodipodi:arc-type="arc"
       sodipodi:open="true"
       sodipodi:end="2.0509015"
       sodipodi:start="2.0510586"
       sodipodi:ry="52.161442"
       sodipodi:rx="52.161442"
       sodipodi:cy="250.85452"
       sodipodi:cx="251.90897"
       sodipodi:type="arc"
       id="path38"
       style="opacity:0.996;fill:#ffffff;stroke-width:4.3863;stroke-linejoin:round;paint-order:markers stroke fill" />
    <path
       style="opacity:0.996;fill:#ffffff;stroke-width:4.3863;stroke-linejoin:round;paint-order:markers stroke fill"
       id="path40"
       sodipodi:type="arc"
       sodipodi:cx="82.192375"
       sodipodi:cy="413.21603"
       sodipodi:rx="52.161442"
       sodipodi:ry="52.161442"
       sodipodi:start="2.0510586"
       sodipodi:end="2.0509015"
       sodipodi:open="true"
       sodipodi:arc-type="arc"
       d="m 58.093174,459.47665 a 52.161442,52.161442 0 0 1 -22.16236,-70.358 52.161442,52.161442 0 0 1 70.357126,-22.16512 52.161442,52.161442 0 0 1 22.16789,70.35625 52.161442,52.161442 0 0 1 -70.355388,22.17065" />
    <path
       d="m 227.80976,459.47665 a 52.161442,52.161442 0 0 1 -22.16236,-70.358 52.161442,52.161442 0 0 1 70.35713,-22.16512 52.161442,52.161442 0 0 1 22.16789,70.35625 52.161442,52.161442 0 0 1 -70.35539,22.17065"
       sodipodi:arc-type="arc"
       sodipodi:open="true"
       sodipodi:end="2.0509015"
       sodipodi:start="2.0510586"
       sodipodi:ry="52.161442"
       sodipodi:rx="52.161442"
       sodipodi:cy="413.21603"
       sodipodi:cx="251.90897"
       sodipodi:type="arc"
       id="path42"
       style="opacity:0.996;fill:#ffffff;stroke-width:4.3863;stroke-linejoin:round;paint-order:markers stroke fill" />
    <path
       style="opacity:0.996;fill:#ffffff;stroke-width:4.3863;stroke-linejoin:round;paint-order:markers stroke fill"
       id="path44"
       sodipodi:type="arc"
       sodipodi:cx="421.62573"
       sodipodi:cy="413.21603"
       sodipodi:rx="52.161442"
       sodipodi:ry="52.161442"
       sodipodi:start="2.0510586"
       sodipodi:end="2.0509015"
       sodipodi:open="true"
       sodipodi:arc-type="arc"
       d="m 397.52653,459.47665 a 52.161442,52.161442 0 0 1 -22.16236,-70.358 52.161442,52.161442 0 0 1 70.35713,-22.16512 52.161442,52.161442 0 0 1 22.16789,70.35625 52.161442,52.161442 0 0 1 -70.35539,22.17065" />
  </g>
</svg>
